<svg width="464" height="62" viewBox="0 0 464 62" fill="none" xmlns="http://www.w3.org/2000/svg">
<path d="M87.838 50.44C86.158 52.12 84.534 52.96 82.966 52.96C81.398 52.96 79.942 52.484 78.598 51.532C77.31 50.524 76.134 48.984 75.07 46.912C74.062 44.784 73.166 43.72 72.382 43.72C70.702 43.72 68.574 45.68 65.998 49.6C65.046 51.056 63.786 52.4 62.218 53.632C60.65 54.864 59.054 55.48 57.43 55.48C55.806 55.48 54.518 54.92 53.566 53.8C52.614 52.68 51.998 51.616 51.718 50.608C51.382 49.488 50.85 47.052 50.122 43.3C49.394 39.548 48.89 37.56 48.61 37.336C48.386 37.112 48.19 37 48.022 37C47.238 37 46.538 37.504 45.922 38.512C45.362 39.464 44.718 40.808 43.99 42.544C43.262 44.28 42.562 46.072 41.89 47.92C41.274 49.712 40.77 51.056 40.378 51.952C39.986 52.792 39.454 53.772 38.782 54.892C37.55 56.964 35.87 58 33.742 58C31.67 58 30.102 57.384 29.038 56.152C27.974 54.92 27.05 53.436 26.266 51.7C25.538 49.908 24.922 48.34 24.418 46.996C23.97 45.596 23.55 44.42 23.158 43.468C22.822 42.516 22.458 41.592 22.066 40.696C21.282 38.792 20.414 37.84 19.462 37.84C17.95 37.84 16.158 40.416 14.086 45.568C13.19 47.696 11.846 49.656 10.054 51.448C7.36595 54.136 5.15395 55.48 3.41795 55.48C1.68195 55.48 0.813953 54.64 0.813953 52.96C0.813953 51.896 1.65395 51.028 3.33395 50.356C6.02195 49.292 7.95395 47.304 9.12995 44.392C10.53 40.696 12.014 37.84 13.582 35.824C15.206 33.808 17.166 32.8 19.462 32.8C21.59 32.8 23.27 33.584 24.502 35.152C25.902 37 27.274 39.884 28.618 43.804C30.018 47.724 31.026 50.244 31.642 51.364C32.258 52.428 32.958 52.96 33.742 52.96C34.19 52.96 34.666 52.372 35.17 51.196C35.674 49.964 36.094 48.928 36.43 48.088C36.766 47.192 37.158 46.128 37.606 44.896C39.286 40.136 40.938 36.804 42.562 34.9C44.186 32.94 46.006 31.96 48.022 31.96C50.374 31.96 52.054 33.024 53.062 35.152C53.902 37 54.49 38.82 54.826 40.612C55.946 47.164 56.758 50.44 57.262 50.44C58.942 50.44 61.07 48.48 63.646 44.56C64.598 43.104 65.858 41.76 67.426 40.528C68.994 39.296 70.506 38.68 71.962 38.68C73.474 38.68 74.874 39.184 76.162 40.192C77.506 41.144 78.682 42.684 79.69 44.812C80.754 46.884 81.678 47.92 82.462 47.92C83.078 47.92 83.918 47.304 84.982 46.072C86.046 44.784 87.222 43.244 88.51 41.452C89.798 39.66 90.75 38.456 91.366 37.84C93.046 36.16 94.726 35.32 96.406 35.32C98.086 35.32 99.43 35.768 100.438 36.664C101.446 37.504 102.398 39.548 103.294 42.796C104.246 46.044 105.058 49.068 105.73 51.868C106.458 54.668 107.102 56.068 107.662 56.068C108.278 56.068 109.006 55.368 109.846 53.968C110.686 52.512 111.526 50.86 112.366 49.012C113.262 47.164 113.99 45.904 114.55 45.232C115.11 44.56 115.614 44 116.062 43.552C117.294 42.32 118.638 41.732 120.094 41.788C121.606 41.788 122.754 42.152 123.538 42.88C124.378 43.552 125.19 44.784 125.974 46.576C126.814 48.368 127.514 49.992 128.074 51.448C128.69 52.848 129.166 53.548 129.502 53.548C129.95 53.548 130.706 53.072 131.77 52.12C132.834 51.112 134.066 50.132 135.466 49.18C136.922 48.172 138.294 47.668 139.582 47.668C141.262 47.724 143.054 48.592 144.958 50.272C146.358 51.56 147.478 52.204 148.318 52.204C149.158 52.148 150.418 51.84 152.098 51.28C153.778 50.72 154.702 50.44 154.87 50.44C156.55 50.44 157.39 51.28 157.39 52.96C157.39 54.192 156.55 55.088 154.87 55.648C151.846 56.656 149.606 57.16 148.15 57.16C146.19 57.16 144.314 56.32 142.522 54.64C141.178 53.408 140.254 52.792 139.75 52.792C139.19 52.68 138.378 53.128 137.314 54.136C134.122 57.048 131.518 58.532 129.502 58.588C128.102 58.588 126.982 58.252 126.142 57.58C125.358 56.852 124.546 55.62 123.706 53.884C122.922 52.092 122.222 50.468 121.606 49.012C121.046 47.556 120.598 46.828 120.262 46.828C119.366 46.828 117.798 49.18 115.558 53.884C113.318 58.7 110.686 61.108 107.662 61.108C106.206 61.108 104.974 60.66 103.966 59.764C102.958 58.924 101.978 56.88 101.026 53.632C100.13 50.384 99.318 47.36 98.59 44.56C97.918 41.76 97.274 40.36 96.658 40.36C96.098 40.36 95.286 41.004 94.222 42.292C93.158 43.524 91.982 45.036 90.694 46.828C89.406 48.62 88.454 49.824 87.838 50.44ZM223.566 38.68C227.374 38.68 229.614 41.368 230.286 46.744C230.342 47.024 230.398 47.528 230.454 48.256C230.566 48.928 230.65 49.46 230.706 49.852C230.762 50.244 230.846 50.552 230.958 50.776C230.958 51 231.014 51.224 231.126 51.448C231.294 51.896 231.574 52.12 231.966 52.12C233.03 52.12 234.402 51.84 236.082 51.28C237.762 50.72 238.686 50.44 238.854 50.44C240.534 50.44 241.374 51.28 241.374 52.96C241.374 54.192 240.534 55.088 238.854 55.648C235.83 56.656 233.478 57.16 231.798 57.16C228.158 57.16 225.974 53.912 225.246 47.416C224.91 44.952 224.35 43.72 223.566 43.72C221.886 43.72 219.758 45.68 217.182 49.6C216.23 51.056 214.97 52.4 213.402 53.632C211.834 54.864 210.238 55.48 208.614 55.48C206.99 55.48 205.702 54.92 204.75 53.8C203.798 52.68 203.182 51.616 202.902 50.608C202.566 49.488 202.034 47.052 201.306 43.3C200.578 39.548 200.074 37.56 199.794 37.336C199.57 37.112 199.374 37 199.206 37C198.422 37 197.722 37.504 197.106 38.512C196.546 39.464 195.902 40.808 195.174 42.544C194.446 44.28 193.746 46.072 193.074 47.92C192.458 49.712 191.954 51.056 191.562 51.952C191.17 52.792 190.638 53.772 189.966 54.892C188.734 56.964 187.054 58 184.926 58C183.47 58 182.238 57.496 181.23 56.488C180.222 55.48 179.438 54.192 178.878 52.624C177.87 49.488 177.338 46.296 177.282 43.048C177.282 39.744 176.946 37.224 176.274 35.488C175.658 33.696 174.902 32.8 174.006 32.8C171.094 32.8 168.91 34.592 167.454 38.176C166.782 39.912 166.054 42.376 165.27 45.568C164.15 49.88 161.49 52.932 157.29 54.724C156.394 55.228 155.47 55.48 154.518 55.48C152.838 55.48 151.998 54.64 151.998 52.96C151.998 51.896 152.838 51.028 154.518 50.356C155.19 50.076 155.554 49.936 155.61 49.936C155.722 49.88 155.946 49.768 156.282 49.6C156.618 49.432 156.842 49.32 156.954 49.264C157.066 49.152 157.262 49.012 157.542 48.844C157.878 48.62 158.102 48.424 158.214 48.256C158.382 48.032 158.578 47.78 158.802 47.5C159.082 47.22 159.278 46.94 159.39 46.66C159.838 45.82 160.23 44.728 160.566 43.384C160.902 42.04 161.21 40.92 161.49 40.024C161.77 39.128 162.302 37.756 163.086 35.908C163.87 34.004 164.682 32.576 165.522 31.624C166.362 30.672 167.51 29.804 168.966 29.02C170.478 28.18 172.298 27.76 174.426 27.76C176.61 27.76 178.458 29.02 179.97 31.54C181.538 34.004 182.322 37.784 182.322 42.88C182.322 44.672 182.518 46.8 182.91 49.264C183.358 51.728 184.03 52.96 184.926 52.96C185.374 52.96 185.85 52.372 186.354 51.196C186.858 49.964 187.278 48.928 187.614 48.088C187.95 47.192 188.342 46.128 188.79 44.896C190.47 40.136 192.122 36.804 193.746 34.9C195.37 32.94 197.19 31.96 199.206 31.96C201.558 31.96 203.238 33.024 204.246 35.152C205.086 37 205.674 38.82 206.01 40.612C207.13 47.164 207.942 50.44 208.446 50.44C210.126 50.44 212.254 48.48 214.83 44.56C215.782 43.104 217.042 41.76 218.61 40.528C220.178 39.296 221.83 38.68 223.566 38.68ZM291.774 55.648C288.75 56.656 286.398 57.16 284.718 57.16C283.038 57.16 281.722 56.544 280.77 55.312C279.818 54.08 278.95 51.98 278.166 49.012C277.438 46.044 276.878 44.56 276.486 44.56C275.03 44.56 273.49 46.8 271.866 51.28C271.25 52.96 270.242 54.5 268.842 55.9C267.442 57.3 265.678 58 263.55 58C261.478 58 259.854 57.076 258.678 55.228C257.502 53.38 256.802 51.364 256.578 49.18C256.41 46.996 256.13 44.98 255.738 43.132C255.346 41.284 254.702 40.36 253.806 40.36C253.19 40.36 252.742 40.528 252.462 40.864C252.182 41.2 251.93 41.536 251.706 41.872C251.538 42.152 251.342 42.46 251.118 42.796C250.95 43.076 250.726 43.468 250.446 43.972C250.222 44.476 249.942 45.008 249.606 45.568C248.486 47.528 247.59 48.984 246.918 49.936C245.574 52.064 243.586 53.688 240.954 54.808C239.946 55.256 239.134 55.48 238.518 55.48C236.838 55.48 235.998 54.64 235.998 52.96C235.998 51.896 236.894 51.028 238.686 50.356C240.478 49.684 241.738 48.732 242.466 47.5C243.25 46.212 244.118 44.756 245.07 43.132C246.022 41.508 246.666 40.416 247.002 39.856C247.394 39.296 247.87 38.624 248.43 37.84C248.99 37 249.494 36.468 249.942 36.244C251.118 35.628 252.406 35.32 253.806 35.32C256.102 35.32 257.838 36.244 259.014 38.092C260.19 39.94 260.862 41.956 261.03 44.14C261.254 46.324 261.562 48.34 261.954 50.188C262.346 52.036 262.99 52.96 263.886 52.96C264.782 52.96 265.622 52.26 266.406 50.86C267.246 49.46 267.974 47.92 268.59 46.24C269.206 44.56 270.186 43.02 271.53 41.62C272.93 40.22 274.582 39.52 276.486 39.52C277.942 39.52 279.006 39.884 279.678 40.612C280.35 41.284 280.826 41.816 281.106 42.208C281.442 42.6 281.722 43.188 281.946 43.972C282.226 44.756 282.422 45.344 282.534 45.736C282.646 46.072 282.814 46.688 283.038 47.584C283.71 50.664 284.326 52.176 284.886 52.12C285.95 52.12 287.322 51.84 289.002 51.28C290.682 50.72 291.606 50.44 291.774 50.44C293.454 50.44 294.294 51.28 294.294 52.96C294.294 54.192 293.454 55.088 291.774 55.648ZM329.396 51.112C329.396 51.112 330.292 50.888 332.084 50.44C333.764 50.44 334.604 51.28 334.604 52.96C334.604 54.192 333.764 55.088 332.084 55.648C331.076 55.984 330.068 56.152 329.06 56.152C328.108 56.152 327.184 55.928 326.288 55.48C325.392 55.032 324.692 54.36 324.188 53.464C323.348 52.008 322.732 50.44 322.34 48.76L322.004 47.332C321.052 48.956 318.728 50.86 315.032 53.044C311.392 55.228 307.5 56.32 303.356 56.32C301.116 56.32 299.156 55.48 297.476 53.8C295.796 52.12 294.956 50.16 294.956 47.92C294.956 42.488 297.196 37.784 301.676 33.808C306.156 29.776 310.692 27.76 315.284 27.76C317.804 27.76 319.96 28.236 321.752 29.188C323.6 30.084 324.524 31.008 324.524 31.96C324.524 33.64 323.684 34.48 322.004 34.48C321.668 34.48 320.856 34.2 319.568 33.64C318.28 33.08 316.852 32.8 315.284 32.8C312.26 32.8 308.956 34.284 305.372 37.252C301.788 40.164 299.996 43.72 299.996 47.92C299.996 48.76 300.332 49.544 301.004 50.272C301.732 50.944 302.516 51.28 303.356 51.28C306.66 51.28 309.74 50.412 312.596 48.676C315.452 46.884 317.272 45.428 318.056 44.308C318.84 43.132 319.484 42.068 319.988 41.116C320.492 40.164 320.856 39.548 321.08 39.268C321.36 38.932 321.92 38.764 322.76 38.764C323.6 38.764 324.244 39.072 324.692 39.688C325.14 40.304 325.56 41.284 325.952 42.628C326.344 43.916 326.736 45.372 327.128 46.996C327.52 48.62 327.856 49.712 328.136 50.272C328.472 50.832 328.892 51.112 329.396 51.112ZM385.043 55.648C382.019 56.656 379.667 57.16 377.987 57.16C376.307 57.16 374.991 56.544 374.039 55.312C373.087 54.08 372.219 51.98 371.435 49.012C370.707 46.044 370.147 44.56 369.755 44.56C368.299 44.56 366.759 46.8 365.135 51.28C364.519 52.96 363.511 54.5 362.111 55.9C360.711 57.3 358.947 58 356.819 58C354.747 58 353.123 57.076 351.947 55.228C350.771 53.38 350.071 51.364 349.847 49.18C349.679 46.996 349.399 44.98 349.007 43.132C348.615 41.284 347.971 40.36 347.075 40.36C346.459 40.36 346.011 40.528 345.731 40.864C345.451 41.2 345.199 41.536 344.975 41.872C344.807 42.152 344.611 42.46 344.387 42.796C344.219 43.076 343.995 43.468 343.715 43.972C343.491 44.476 343.211 45.008 342.875 45.568C341.755 47.528 340.859 48.984 340.187 49.936C338.843 52.064 336.855 53.688 334.223 54.808C333.215 55.256 332.403 55.48 331.787 55.48C330.107 55.48 329.267 54.64 329.267 52.96C329.267 51.896 330.163 51.028 331.955 50.356C333.747 49.684 335.007 48.732 335.735 47.5C336.519 46.212 337.387 44.756 338.339 43.132C339.291 41.508 339.935 40.416 340.271 39.856C340.663 39.296 341.139 38.624 341.699 37.84C342.259 37 342.763 36.468 343.211 36.244C344.387 35.628 345.675 35.32 347.075 35.32C349.371 35.32 351.107 36.244 352.283 38.092C353.459 39.94 354.131 41.956 354.299 44.14C354.523 46.324 354.831 48.34 355.223 50.188C355.615 52.036 356.259 52.96 357.155 52.96C358.051 52.96 358.891 52.26 359.675 50.86C360.515 49.46 361.243 47.92 361.859 46.24C362.475 44.56 363.455 43.02 364.799 41.62C366.199 40.22 367.851 39.52 369.755 39.52C371.211 39.52 372.275 39.884 372.947 40.612C373.619 41.284 374.095 41.816 374.375 42.208C374.711 42.6 374.991 43.188 375.215 43.972C375.495 44.756 375.691 45.344 375.803 45.736C375.915 46.072 376.083 46.688 376.307 47.584C376.979 50.664 377.595 52.176 378.155 52.12C379.219 52.12 380.591 51.84 382.271 51.28C383.951 50.72 384.875 50.44 385.043 50.44C386.723 50.44 387.563 51.28 387.563 52.96C387.563 54.192 386.723 55.088 385.043 55.648ZM434.593 48.508C433.025 50.804 430.981 52.68 428.461 54.136C425.941 55.592 423.253 56.32 420.397 56.32C417.597 56.32 415.385 55.396 413.761 53.548C412.193 51.7 411.297 49.516 411.073 46.996C407.377 54.332 403.177 58 398.473 58C395.449 58 392.985 57.132 391.081 55.396C389.177 53.604 388.225 50.412 388.225 45.82C388.225 41.172 389.737 37 392.761 33.304C395.785 29.608 399.313 27.76 403.345 27.76C405.641 27.76 408.329 29.02 411.409 31.54C412.417 20.116 414.461 10.512 417.541 2.728C418.213 1.048 419.081 0.207998 420.145 0.207998C421.825 0.207998 422.665 1.048 422.665 2.728C422.665 3.12 422.553 3.596 422.329 4.156C420.481 8.748 418.941 14.516 417.709 21.46C416.533 28.404 415.945 35.824 415.945 43.72C415.945 46.352 416.253 48.284 416.869 49.516C417.541 50.692 418.913 51.28 420.985 51.28C424.681 51.28 427.929 49.32 430.729 45.4C430.897 45.176 431.373 44.476 432.157 43.3C432.997 42.124 433.585 41.34 433.921 40.948C434.257 40.5 434.817 39.828 435.601 38.932C436.385 37.98 437.057 37.336 437.617 37C439.297 35.88 440.865 35.32 442.321 35.32C443.833 35.32 445.177 35.908 446.353 37.084C447.529 38.204 448.397 39.576 448.957 41.2C449.461 42.88 449.937 44.56 450.385 46.24C451.393 50.216 452.513 52.176 453.745 52.12C454.809 52.12 456.181 51.84 457.861 51.28C459.541 50.72 460.465 50.44 460.633 50.44C462.313 50.44 463.153 51.28 463.153 52.96C463.153 54.192 462.313 55.088 460.633 55.648C457.609 56.656 455.257 57.16 453.577 57.16C451.953 57.16 450.553 56.6 449.377 55.48C448.201 54.304 447.333 52.904 446.773 51.28C446.269 49.6 445.793 47.92 445.345 46.24C444.337 42.32 443.217 40.36 441.985 40.36C440.753 40.36 438.289 43.076 434.593 48.508ZM439.465 16.336C440.361 16.336 441.285 16.756 442.237 17.596C443.189 18.38 443.665 19.22 443.665 20.116C443.665 20.956 443.301 21.6 442.573 22.048C441.901 22.496 441.117 22.72 440.221 22.72C439.325 22.72 438.541 22.328 437.869 21.544C437.253 20.704 436.945 19.808 436.945 18.856C436.945 17.176 437.785 16.336 439.465 16.336ZM410.065 36.16C409.393 36.16 408.945 36.048 408.721 35.824C408.273 35.376 407.797 34.984 407.293 34.648C405.781 33.416 404.465 32.8 403.345 32.8C400.881 32.8 398.585 34.116 396.457 36.748C394.329 39.324 393.265 42.6 393.265 46.576C393.265 49.096 393.657 50.804 394.441 51.7C395.281 52.54 396.625 52.96 398.473 52.96C402.393 52.96 406.257 47.36 410.065 36.16Z" fill="#1D1B19"/>
</svg>
